# xmcd
#
# Track frame offsets:
#	150
#	17458
#	33853
#	49646
#	64137
#	82556
#	112254
#	127673
#	140890
#	155612
#	174611
#	191312
#	225345
#
# Disc length: 3378 seconds
#
# Revision: 1
# Processed by: cddbd v1.5.1PL2 Copyright (c) Steve Scherf et al.
# Submitted via: audiograbber 1.83.01
#
DISCID=990d300d
DTITLE=Pumpjack - The World Still Ain't Perdy!
DYEAR=1996
DGENRE=Country
TTITLE0=Caught Up In A Twister
TTITLE1=Drown
TTITLE2=Trailer Park Trash
TTITLE3=Pa
TTITLE4=Harvest
TTITLE5=Hangover
TTITLE6=Sucker Punch
TTITLE7=Tit Bar Guy
TTITLE8=Michuacan
TTITLE9=Sot
TTITLE10=Redneck Asshole
TTITLE11=Bowlin' Alley Queen
TTITLE12=Data Track
EXTD=data track contains MP3 versions of the songs on the album
EXTT0=
EXTT1=
EXTT2=
EXTT3=
EXTT4=
EXTT5=
EXTT6=
EXTT7=
EXTT8=
EXTT9=
EXTT10=
EXTT11=
EXTT12=
PLAYORDER=
